#!OML:ASF F:\VICON\USERDATA\INSTALL\Justin_Nancy\Justin_Nancy.ASF
:FULLY-SPECIFIED
:DEGREES
157
root 0.442673 16.9631 4.04616 -81.0969 -82.737 86.4446
lowerback 7.54491 2.09616 -2.93259
upperback -1.34658 2.57414 1.04351
thorax -5.82159 1.38628 2.41321
lowerneck -18.3536 -4.92724 -9.87058
upperneck 24.2525 -5.82117 5.78983
head 11.4044 -2.93063 2.86897
rclavicle -3.71727e-014 7.95139e-015
rhumerus -40.5537 -24.4738 -65.8713
rradius 24.9213
rwrist 11.7652
rhand -19.5589 8.57456
rfingers 7.12502
rthumb 6.76565 -21.2973
lclavicle -3.71727e-014 7.95139e-015
lhumerus -38.9916 19.2155 72.7558
lradius 36.7073
lwrist 2.28739
lhand -23.124 24.1846
lfingers 7.12502
lthumb 3.32339 54.1384
rfemur 6.49537 5.78084 17.5741
rtibia 46.8425
rfoot 19.0958 3.8502
rtoes 10.7507
lfemur -29.2395 -7.76193 -18.3674
ltibia 32.1368
lfoot -9.57689 -5.50454
ltoes -5.97664
158
root 0.235851 16.9946 4.1345 -82.8913 -83.1125 87.9891
lowerback 7.82152 2.07038 -2.61593
upperback -1.32434 2.56291 1.04548
thorax -5.93977 1.3706 2.23033
lowerneck -18.1853 -4.81069 -9.85089
upperneck 23.937 -5.71925 6.01537
head 11.2488 -2.85326 2.96485
rclavicle -1.88845e-015 1.59028e-014
rhumerus -41.4866 -26.9008 -63.8103
rradius 23.0288
rwrist 13.7826
rhand -19.4184 8.08014
rfingers 7.12502
rthumb 6.90127 -21.7874
lclavicle -1.88845e-015 1.59028e-014
lhumerus -38.7709 19.5919 72.3289
lradius 37.1524
lwrist 1.76775
lhand -22.6516 23.8629
lfingers 7.12502
lthumb 3.77952 53.8092
rfemur 4.10248 5.56452 17.8009
rtibia 51.0842
rfoot 18.8639 3.07549
rtoes 10.4028
lfemur -28.0522 -7.06336 -18.5401
ltibia 31.938
lfoot -9.96022 -6.47559
ltoes -3.1638
159
root 0.0317731 17.0262 4.20014 -84.6661 -82.675 89.4886
lowerback 8.10943 2.06343 -3.33465
upperback -1.23304 2.46349 0.86668
thorax -6.02584 1.34264 2.45309
lowerneck -18.2812 -4.79443 -9.92423
upperneck 23.781 -5.70797 6.2302
head 11.2168 -2.8232 3.05579
rclavicle -6.95746e-016 1.59028e-014
rhumerus -42.4288 -29.0507 -61.6244
rradius 21.3598
rwrist 16.0809
rhand -19.0401 7.91833
rfingers 7.12502
rthumb 7.26645 -21.9369
lclavicle -6.95746e-016 1.59028e-014
lhumerus -38.2676 19.3346 72.3439
lradius 37.708
lwrist 2.8525
lhand -23.4113 24.634
lfingers 7.12502
lthumb 3.04588 54.592
rfemur 1.91432 5.43459 17.3692
rtibia 55.071
rfoot 17.5913 1.66573
rtoes 10.797
lfemur -26.9564 -6.28406 -19.6051
ltibia 32.0782
lfoot -10.7234 -7.34539
ltoes -2.90379
160
root -0.180389 17.0589 4.26269 -87.0944 -79.9057 91.371
lowerback 8.58702 2.19309 -6.41703
upperback -1.02071 2.23638 0.0300524
thorax -6.15585 1.31503 3.32812
lowerneck -18.6125 -4.7297 -9.82915
upperneck 23.8699 -5.62089 6.26775
head 11.304 -2.76402 3.06534
rclavicle -6.4605e-015 2.22639e-014
rhumerus -43.2086 -30.1516 -60.0138
rradius 20.0236
rwrist 17.9435
rhand -18.0035 7.53228
rfingers 7.12502
rthumb 8.26695 -22.286
lclavicle -6.4605e-015 2.22639e-014
lhumerus -37.6355 18.5237 72.5189
lradius 38.242
lwrist 4.54147
lhand -24.8472 25.72
lfingers 7.12502
lthumb 1.65919 55.6933
rfemur 0.0949718 5.01568 14.0707
rtibia 58.9194
rfoot 15.6483 0.642723
rtoes 13.0706
lfemur -25.1148 -6.19443 -23.1896
ltibia 31.7327
lfoot -11.3091 -6.70175
ltoes -4.13794
161
root -0.353732 17.0684 4.28866 -67.3629 -83.1098 72.6886
lowerback 7.77356 1.21458 -3.12799
upperback -1.44005 1.37134 1.04924
thorax -5.97379 0.803743 2.68039
lowerneck -18.7227 -4.59753 -9.65157
upperneck 23.7746 -5.42748 6.13308
head 11.2611 -2.67211 3.01431
rclavicle -1.16289e-014 1.59028e-015
rhumerus -44.0031 -31.8022 -58.3856
rradius 18.6321
rwrist 20.8199
rhand -17.343 6.93669
rfingers 7.12502
rthumb 8.9044 -22.8554
lclavicle -1.16289e-014 1.59028e-015
lhumerus -37.2692 18.3867 72.4476
lradius 38.5307
lwrist 4.86796
lhand -25.405 25.3314
lfingers 7.12502
lthumb 1.12043 55.3082
rfemur -3.69754 2.94005 18.6662
rtibia 62.25
rfoot 13.9215 -1.81336
rtoes 15.9915
lfemur -26.2843 -6.20841 -19.4095
ltibia 31.5766
lfoot -11.1075 -8.41572
ltoes -3.82779
162
root -0.55872 17.0952 4.38486 -74.9593 -81.9479 79.9703
lowerback 8.11765 1.37761 -4.34554
upperback -1.33208 1.42393 0.541648
thorax -6.08066 0.862249 2.82261
lowerneck -18.6766 -4.52575 -9.49202
upperneck 23.6418 -5.33336 6.00392
head 11.1845 -2.62931 2.95357
rclavicle 3.77691e-015 7.95139e-015
rhumerus -44.8348 -33.1329 -57.2778
rradius 17.5627
rwrist 22.6435
rhand -17.9564 6.52074
rfingers 7.12502
rthumb 8.31244 -23.2957
lclavicle 3.77691e-015 7.95139e-015
lhumerus -36.8766 18.3122 72.3058
lradius 38.5081
lwrist 4.66407
lhand -25.6663 24.3775
lfingers 7.12502
lthumb 0.868062 54.3554
rfemur -5.81078 2.47912 16.7826
rtibia 65.3238
rfoot 11.8701 -1.75586
rtoes 15.888
lfemur -24.6033 -6.35147 -21.3781
ltibia 31.0995
lfoot -11.8243 -7.99578
ltoes -3.9154
163
root -0.755927 17.1129 4.47053 -75.4353 -81.3993 80.0215
lowerback 8.61988 1.24724 -4.76981
upperback -1.21091 1.16441 0.28315
thorax -6.22145 0.744047 2.81983
lowerneck -18.5997 -4.3887 -9.08557
upperneck 23.3994 -5.14988 5.62819
head 11.0388 -2.55227 2.77401
rclavicle -8.34896e-015 -1.66979e-014
rhumerus -45.4497 -33.8382 -56.6934
rradius 16.9129
rwrist 23.6643
rhand -18.6593 6.30184
rfingers 7.12502
rthumb 7.63396 -23.5404
lclavicle -8.34896e-015 -1.66979e-014
lhumerus -36.2878 18.1838 72.1225
lradius 38.3139
lwrist 4.62973
lhand -25.5413 23.5994
lfingers 7.12502
lthumb 0.988779 53.5769
rfemur -7.72071 1.30472 15.9758
rtibia 67.9292
rfoot 9.9943 -1.72019
rtoes 13.8455
lfemur -23.2718 -6.41076 -22.4768
ltibia 31.0155
lfoot -12.7628 -8.19238
ltoes -4.95357
164
root -0.96137 17.1372 4.54272 -72.1583 -81.6298 76.7444
lowerback 8.5363 0.899966 -4.55229
upperback -1.17264 0.739579 0.43433
thorax -6.09468 0.527307 2.91716
lowerneck -18.6187 -4.18519 -8.77219
upperneck 23.0991 -4.77502 5.05485
head 10.8754 -2.41686 2.5668
rclavicle 4.96962e-016 -2.06736e-014
rhumerus -46.1693 -34.4922 -55.7788
rradius 16.8559
rwrist 25.8504
rhand -18.5291 6.02122
rfingers 7.12502
rthumb 7.75969 -23.8164
lclavicle 4.96962e-016 -2.06736e-014
lhumerus -35.8512 18.5863 71.8784
lradius 38.2911
lwrist 4.00805
lhand -24.8544 23.5236
lfingers 7.12502
lthumb 1.65217 53.497
rfemur -10.059 -0.113408 16.2515
rtibia 70.2333
rfoot 8.25904 -2.21356
rtoes 13.2911
lfemur -22.0828 -6.51071 -22.5215
ltibia 30.011
lfoot -12.9418 -8.15329
ltoes -5.79701
165
root -1.17319 17.1612 4.61186 -72.4162 -81.4051 76.9927
lowerback 8.42043 0.803481 -4.98177
upperback -1.13997 0.576199 0.501543
thorax -5.98725 0.459643 3.25356
lowerneck -18.7134 -4.08712 -9.05245
upperneck 23.081 -4.49995 4.92097
head 10.8702 -2.33024 2.60578
rclavicle -1.2921e-014 -7.95139e-015
rhumerus -46.8518 -34.1932 -55.3596
rradius 17.4719
rwrist 27.1538
rhand -17.0321 6.09808
rfingers 7.12502
rthumb 9.20439 -23.681
lclavicle -1.2921e-014 -7.95139e-015
lhumerus -35.3479 19.0625 71.8091
lradius 38.1856
lwrist 2.89712
lhand -23.5933 23.8684
lfingers 7.12502
lthumb 2.87017 53.8288
rfemur -12.3026 -0.951355 15.9993
rtibia 72.1718
rfoot 6.52488 -2.87559
rtoes 13.8937
lfemur -20.8589 -6.71473 -23.0817
ltibia 29.3088
lfoot -13.2163 -7.9243
ltoes -5.09227
166
root -1.39371 17.1797 4.70523 -79.401 -79.269 83.4487
lowerback 8.74178 1.07825 -7.20662
upperback -0.924664 0.640577 -0.161484
thorax -5.97719 0.543435 3.79943
lowerneck -18.7821 -3.97802 -9.20543
upperneck 23.2709 -4.31004 4.949
head 10.9432 -2.25734 2.6721
rclavicle 1.49089e-015 -1.11319e-014
rhumerus -47.2405 -32.9126 -56.1548
rradius 18.4715
rwrist 26.6384
rhand -15.7153 6.00552
rfingers 7.12502
rthumb 10.4748 -23.7135
lclavicle 1.49089e-015 -1.11319e-014
lhumerus -34.6338 18.6575 71.9597
lradius 37.9572
lwrist 2.5943
lhand -22.618 24.1257
lfingers 7.12502
lthumb 3.812 54.0713
rfemur -13.8733 -1.44507 13.1009
rtibia 73.9046
rfoot 4.41143 -2.61148
rtoes 13.3367
lfemur -18.7239 -6.853 -26.1022
ltibia 28.4996
lfoot -13.6844 -7.5936
ltoes -3.5384
167
root -1.59352 17.1945 4.76932 -77.7412 -80.1374 81.7472
lowerback 8.81943 0.923264 -6.26204
upperback -0.932179 0.544476 0.0202477
thorax -6.00476 0.471109 3.47218
lowerneck -18.9597 -3.90932 -9.4215
upperneck 23.5668 -4.18378 5.09679
head 11.0861 -2.2052 2.78398
rclavicle -2.08724e-015 -2.38542e-015
rhumerus -47.6445 -31.5533 -57.3199
rradius 19.6311
rwrist 25.7774
rhand -16.0232 5.92732
rfingers 7.12502
rthumb 10.1778 -23.8065
lclavicle -2.08724e-015 -2.38542e-015
lhumerus -33.8403 18.0848 72.0741
lradius 37.6057
lwrist 2.75824
lhand -22.6694 24.0521
lfingers 7.12502
lthumb 3.7624 53.9987
rfemur -15.9889 -2.28821 14.4266
rtibia 75.1223
rfoot 2.50541 -2.94282
rtoes 10.6497
lfemur -17.579 -6.68214 -25.3567
ltibia 27.694
lfoot -13.7762 -8.35712
ltoes -1.00056
